<svg width="80" height="81" viewBox="0 0 80 81" fill="none" xmlns="http://www.w3.org/2000/svg">
<path fill-rule="evenodd" clip-rule="evenodd" d="M76.0431 45.5822C78.15 46.2465 79.3194 48.493 78.6551 50.5999L77.6582 53.7617L76.3227 56.986L74.7112 60.0815L72.8361 63.0249L70.7116 65.7936L68.3539 68.3666L65.7809 70.7243L63.0122 72.8488L60.0688 74.7239L57.1282 76.2547C55.1687 77.2748 52.7532 76.5132 51.7331 74.5537C50.7131 72.5942 51.4747 70.1787 53.4342 69.1587L56.065 67.7891L58.4192 66.2894L60.6337 64.5901L62.6916 62.7043L64.5774 60.6464L66.2767 58.4319L67.7764 56.0777L69.0653 53.6018L70.1335 51.023L71.0254 48.1943C71.6897 46.0874 73.9362 44.9179 76.0431 45.5822Z" fill="#B2E133"/>
<path fill-rule="evenodd" clip-rule="evenodd" d="M76.3865 37.7342C74.2297 38.2124 72.0937 36.8516 71.6155 34.6948L70.9736 31.7992L70.1342 29.137L69.066 26.5582L67.7771 24.0823L66.2774 21.7281L64.5781 19.5136L62.6924 17.4557L60.6344 15.5699L58.4199 13.8706L56.0657 12.3709L53.5898 11.082L51.011 10.0138L48.3489 9.17443L45.6237 8.57028L42.8563 8.20594L40.0676 8.08418L37.279 8.20594L34.5116 8.57028L31.7864 9.17443L29.1243 10.0138L26.5454 11.082L24.0696 12.3708L21.7154 13.8706L19.5009 15.5699L17.4429 17.4557L15.5571 19.5136L13.8579 21.7281L12.3581 24.0823L11.0692 26.5582L10.0011 29.137L9.16168 31.7992L8.55754 34.5243L8.1932 37.2917L8.07144 40.0804L8.19319 42.869L8.55754 45.6365L9.16169 48.3616L10.001 51.0237L11.0692 53.6025L12.3581 56.0785L13.8579 58.4326L15.5571 60.6471L17.4429 62.7051L19.5009 64.5909L21.7153 66.2901L24.0696 67.7899L26.5455 69.0788L29.1242 70.1469L31.7864 70.9863L34.5116 71.5905L37.279 71.9548L40.2421 72.0842C42.4491 72.1805 44.1602 74.0478 44.0638 76.2548C43.9675 78.4619 42.1002 80.1729 39.8931 80.0766L36.5811 79.932L33.121 79.4764L29.7139 78.7211L26.3855 77.6717L23.1613 76.3361L20.0657 74.7247L17.1224 72.8496L14.3537 70.7251L11.7807 68.3673L9.42294 65.7943L7.29843 63.0256L5.42332 60.0823L3.81187 56.9867L2.47636 53.7625L1.42693 50.4341L0.671571 47.027L0.216048 43.5669L0.0638226 40.0804L0.216057 36.5938L0.671575 33.1338L1.42693 29.7266L2.47635 26.3983L3.81187 23.174L5.42332 20.0785L7.29844 17.1351L9.42294 14.3664L11.7807 11.7934L14.3537 9.43568L17.1224 7.31117L20.0657 5.43606L23.1613 3.82461L26.3855 2.48909L29.7139 1.43966L33.121 0.684313L36.5811 0.22879L40.0676 0.076563L43.5542 0.228789L47.0142 0.684311L50.4214 1.43966L53.7497 2.48909L56.974 3.82461L60.0695 5.43606L63.0129 7.31117L65.7816 9.43568L68.3546 11.7934L70.7123 14.3664L72.8368 17.1351L74.7119 20.0785L76.3234 23.174L77.6589 26.3983L78.7083 29.7266L79.4259 32.9633C79.904 35.1201 78.5432 37.2561 76.3865 37.7342Z" fill="#D4D4D4"/>
</svg>
