<svg width="50" height="47" viewBox="0 0 50 47" fill="none" xmlns="http://www.w3.org/2000/svg">
<path fill-rule="evenodd" clip-rule="evenodd" d="M50 47H0.367647L0 19.9843L25 0L50 20.3543V47ZM46.6912 44.7795H33.4559L46.6912 39.2283V44.7795ZM32.7206 41.0787L46.6912 35.5276V27.0157L32.7206 41.0787ZM29.7794 38.4882L46.3235 21.8346L39.3382 16.6535L29.7794 38.4882ZM26.8382 37.378L36.0294 14.063L26.8382 5.92126V37.378ZM23.1618 37.378V5.92126L13.9706 13.6929L23.1618 37.378ZM20.2206 38.1181L10.6618 16.2835L3.30882 21.8346L20.2206 38.1181ZM17.2794 41.0787L3.67647 26.6457L3.30882 35.5276L17.2794 41.0787ZM16.1765 44.7795H3.30882V38.4882L16.1765 44.7795Z" fill="#B2E133"/>
</svg>
